<?xml version="1.0" standalone="no"?>
<!DOCTYPE svg PUBLIC "-//W3C//DTD SVG 1.0//EN" "http://www.w3.org/TR/2001/REC-SVG-20010904/DTD/svg10.dtd">
<svg xmlns="http://www.w3.org/2000/svg" xmlns:xlink="http://www.w3.org/1999/xlink" id="body_1" width="80" height="79">

<g transform="matrix(0.06120887 0 0 0.06119288 0 0)">
    <path transform="matrix(0.1333673 0 0 -0.1333678 0 1291)"  d="M213 9634C 128 9590 89 9553 39 9468L39 9468L-1 9402L3 5733C 6 3373 11 2033 18 1974C 29 1868 49 1820 105 1765C 132 1738 315 1630 650 1441C 2684 296 2977 132 3150 45C 3217 11 3229 8 3290 12C 3404 18 3522 93 3596 206C 3607 223 3611 361 3617 937L3617 937L3623 1647L4934 1654C 5655 1658 6308 1665 6385 1669C 6578 1681 6625 1703 6721 1831L6721 1831L6770 1897L6770 3074L6770 4250L6430 4250L6090 4250L6090 3295L6090 2340L4857 2340L3623 2340L3617 5072L3610 7804L3572 7849C 3499 7936 3344 8030 2382 8578L2382 8578L1719 8955L1772 8963C 1801 8967 2785 8973 3958 8976L3958 8976L6090 8982L6090 7756L6090 6530L6430 6530L6770 6530L6770 7976L6770 9421L6731 9479C 6709 9511 6662 9564 6626 9597L6626 9597L6561 9657L5758 9663C 5316 9667 3903 9670 2618 9670L2618 9670L281 9670L213 9634z" stroke="none" fill="#000000" fill-rule="nonzero" />
    <path transform="matrix(0.1333673 0 0 -0.1333678 0 1291)"  d="M7611 6944C 7592 6936 7557 6914 7533 6894L7533 6894L7490 6859L7490 6686C 7490 6591 7487 6371 7483 6198L7483 6198L7477 5883L6591 5877C 6104 5873 5664 5866 5614 5861C 5341 5834 5150 5610 5175 5346C 5192 5164 5288 5030 5453 4955C 5502 4932 5529 4928 5682 4920C 5777 4915 6219 4909 6665 4905C 7110 4902 7475 4898 7477 4897C 7478 4896 7482 4676 7486 4408L7486 4408L7493 3921L7547 3875C 7666 3771 7675 3772 7882 3909C 8297 4182 9346 4941 9679 5208C 9784 5293 9806 5328 9796 5397C 9787 5462 9767 5493 9692 5557C 9520 5705 8122 6721 7868 6883C 7742 6963 7685 6977 7611 6944z" stroke="none" fill="#000000" fill-rule="nonzero" />
</g>
</svg>